<?xml version="1.0" encoding="UTF-8" standalone="no"?>
<!-- Created with Inkscape (http://www.inkscape.org/) -->

<svg
   width="300mm"
   height="150mm"
   viewBox="0 0 300 150"
   version="1.1"
   id="svg1"
   inkscape:version="1.4 (e7c3feb100, 2024-10-09)"
   sodipodi:docname="logo-edit.svg"
   xmlns:inkscape="http://www.inkscape.org/namespaces/inkscape"
   xmlns:sodipodi="http://sodipodi.sourceforge.net/DTD/sodipodi-0.dtd"
   xmlns="http://www.w3.org/2000/svg"
   xmlns:svg="http://www.w3.org/2000/svg">
  <sodipodi:namedview
     id="namedview1"
     pagecolor="#ffffff"
     bordercolor="#666666"
     borderopacity="1.0"
     inkscape:showpageshadow="2"
     inkscape:pageopacity="0.0"
     inkscape:pagecheckerboard="0"
     inkscape:deskcolor="#d1d1d1"
     inkscape:document-units="mm"
     inkscape:zoom="0.78248518"
     inkscape:cx="-104.79432"
     inkscape:cy="375.08697"
     inkscape:window-width="1920"
     inkscape:window-height="1003"
     inkscape:window-x="0"
     inkscape:window-y="0"
     inkscape:window-maximized="1"
     inkscape:current-layer="layer1" />
  <defs
     id="defs1">
    <clipPath
       id="clippath">
      <path
         d="m 1141.24,675.81 17.36,17.36 22.46,-22.45 c 1.12,1.68 2.42,3.29 3.91,4.77 11.99,11.99 31.41,11.99 43.39,0.01 11.98,-11.98 11.97,-31.4 -0.01,-43.39 -1.49,-1.49 -3.09,-2.79 -4.77,-3.91 l 22.45,-22.46 -21.8,-21.8 c 1.69,-1.12 3.29,-2.42 4.77,-3.91 11.98,-11.98 11.97,-31.4 -0.01,-43.39 -11.99,-11.99 -31.41,-11.99 -43.39,-0.01 -1.49,1.49 -2.79,3.09 -3.9,4.77 l -22.47,-22.47 -22.33,22.33 c -0.99,-1.4 -2.11,-2.73 -3.36,-3.98 -11.99,-11.99 -31.41,-11.99 -43.39,-0.01 -11.98,11.98 -11.97,31.4 0.01,43.39 1.25,1.25 2.58,2.37 3.98,3.36 l -22.33,22.33 18.03,18.03 c 0.11,-0.11 0.22,-0.22 0.33,-0.34 14.19,-14.19 37.2,-14.18 51.4,0.02 14.2,14.2 14.21,37.21 0.02,51.4 -0.11,0.11 -0.22,0.22 -0.33,0.33 z"
         style="clip-rule:evenodd;fill:#3d8ccc;stroke-width:0px"
         id="path1" />
    </clipPath>
    <clipPath
       id="clippath-1">
      <path
         d="m 1183.53,682.76 -17.36,17.36 22.46,22.46 c -1.69,1.12 -3.29,2.42 -4.78,3.91 -11.98,11.98 -11.99,31.41 -0.01,43.39 11.98,11.98 31.4,11.97 43.39,-0.01 1.49,-1.49 2.79,-3.09 3.91,-4.77 l 22.46,22.46 21.8,-21.8 c 1.12,1.69 2.42,3.29 3.9,4.77 11.98,11.98 31.4,11.97 43.39,-0.01 11.98,-11.99 11.99,-31.41 0.01,-43.39 -1.49,-1.49 -3.08,-2.79 -4.77,-3.91 l 22.47,-22.47 -22.33,-22.33 c 1.4,-0.99 2.73,-2.11 3.98,-3.36 11.99,-11.99 11.99,-31.41 0.01,-43.39 -11.98,-11.98 -31.4,-11.97 -43.39,0.01 -1.25,1.25 -2.37,2.58 -3.36,3.98 l -22.33,-22.33 -18.03,18.03 c 0.11,0.11 0.22,0.22 0.34,0.33 14.19,14.19 14.18,37.2 -0.02,51.4 -14.2,14.2 -37.21,14.2 -51.4,0.02 -0.11,-0.11 -0.22,-0.22 -0.33,-0.34 z"
         style="clip-rule:evenodd;fill:#369e3d;stroke-width:0px"
         id="path2" />
    </clipPath>
    <clipPath
       id="clippath-2">
      <path
         d="m 1177.98,723.22 -17.37,-17.36 -22.46,22.46 c -1.12,-1.69 -2.42,-3.29 -3.91,-4.78 -11.99,-11.99 -31.41,-11.99 -43.39,-0.01 -11.98,11.98 -11.97,31.4 0.01,43.39 1.49,1.49 3.09,2.79 4.78,3.91 l -22.46,22.45 21.8,21.8 c -1.69,1.11 -3.28,2.42 -4.77,3.9 -11.98,11.98 -11.97,31.4 0.01,43.39 11.99,11.99 31.41,11.99 43.39,0.02 1.49,-1.49 2.79,-3.09 3.9,-4.77 l 22.47,22.47 22.33,-22.33 c 0.99,1.4 2.11,2.73 3.37,3.98 11.98,11.98 31.41,11.99 43.39,0.01 11.98,-11.98 11.97,-31.4 -0.01,-43.39 -1.25,-1.25 -2.59,-2.37 -3.98,-3.36 l 22.33,-22.33 -18.03,-18.03 c -0.11,0.11 -0.22,0.22 -0.33,0.34 -14.19,14.19 -37.2,14.18 -51.4,-0.02 -14.2,-14.2 -14.21,-37.21 -0.02,-51.4 0.11,-0.11 0.22,-0.22 0.34,-0.33 z"
         style="clip-rule:evenodd;fill:#3d8ccc;stroke-width:0px"
         id="path3" />
    </clipPath>
    <clipPath
       id="clippath-3">
      <path
         d="m 1135.23,717.16 17.36,-17.36 -22.45,-22.46 c 1.68,-1.12 3.29,-2.42 4.77,-3.91 11.99,-11.99 11.99,-31.41 0.01,-43.39 -11.98,-11.98 -31.4,-11.97 -43.39,0.01 -1.49,1.49 -2.79,3.09 -3.91,4.77 l -22.46,-22.46 -21.8,21.8 c -1.12,-1.68 -2.42,-3.28 -3.9,-4.77 -11.98,-11.98 -31.4,-11.97 -43.39,0.01 -11.99,11.99 -11.99,31.41 -0.01,43.39 1.49,1.49 3.09,2.79 4.77,3.91 l -22.47,22.47 22.33,22.33 c -1.4,0.99 -2.73,2.11 -3.98,3.36 -11.99,11.99 -11.99,31.41 -0.01,43.39 11.98,11.98 31.4,11.97 43.39,-0.01 1.25,-1.25 2.37,-2.58 3.36,-3.98 l 22.33,22.33 18.03,-18.03 c -0.11,-0.11 -0.22,-0.22 -0.33,-0.33 -14.19,-14.19 -14.18,-37.2 0.02,-51.4 14.2,-14.2 37.21,-14.2 51.4,-0.02 0.11,0.11 0.22,0.22 0.33,0.34 z"
         style="clip-rule:evenodd;fill:#369e3d;stroke-width:0px"
         id="path4" />
    </clipPath>
  </defs>
  <g
     inkscape:label="Layer 1"
     inkscape:groupmode="layer"
     id="layer1">
    <g
       id="g1"
       transform="translate(-5.6164336,-15.685888)">
      <g
         id="g35"
         transform="matrix(0.26458333,0,0,0.26458333,-235.80154,-96.194251)">
        <path
           d="m 1141.24,675.81 17.36,17.36 22.46,-22.45 c 1.12,1.68 2.42,3.29 3.91,4.77 11.99,11.99 31.41,11.99 43.39,0.01 11.98,-11.98 11.97,-31.4 -0.01,-43.39 -1.49,-1.49 -3.09,-2.79 -4.77,-3.91 l 22.45,-22.46 -21.8,-21.8 c 1.69,-1.12 3.29,-2.42 4.77,-3.91 11.98,-11.98 11.97,-31.4 -0.01,-43.39 -11.99,-11.99 -31.41,-11.99 -43.39,-0.01 -1.49,1.49 -2.79,3.09 -3.9,4.77 l -22.47,-22.47 -22.33,22.33 c -0.99,-1.4 -2.11,-2.73 -3.36,-3.98 -11.99,-11.99 -31.41,-11.99 -43.39,-0.01 -11.98,11.98 -11.97,31.4 0.01,43.39 1.25,1.25 2.58,2.37 3.98,3.36 l -22.33,22.33 18.03,18.03 c 0.11,-0.11 0.22,-0.22 0.33,-0.34 14.19,-14.19 37.2,-14.18 51.4,0.02 14.2,14.2 14.21,37.21 0.02,51.4 -0.11,0.11 -0.22,0.22 -0.33,0.33 z"
           style="fill:#3d8ccc;fill-rule:evenodd"
           id="path33" />
        <g
           clip-path="url(#clippath)"
           id="g34">
          <rect
             x="1089.95"
             y="493.54999"
             width="164.62"
             height="199.64999"
             transform="rotate(-45,1172.263,593.37275)"
             style="fill:#3d8ccc;stroke-width:0px"
             id="rect34" />
        </g>
      </g>
      <g
         id="g37"
         transform="matrix(0.26458333,0,0,0.26458333,-235.80154,-96.194251)">
        <path
           d="m 1183.53,682.76 -17.36,17.36 22.46,22.46 c -1.69,1.12 -3.29,2.42 -4.78,3.91 -11.98,11.98 -11.99,31.41 -0.01,43.39 11.98,11.98 31.4,11.97 43.39,-0.01 1.49,-1.49 2.79,-3.09 3.91,-4.77 l 22.46,22.46 21.8,-21.8 c 1.12,1.69 2.42,3.29 3.9,4.77 11.98,11.98 31.4,11.97 43.39,-0.01 11.98,-11.99 11.99,-31.41 0.01,-43.39 -1.49,-1.49 -3.08,-2.79 -4.77,-3.91 l 22.47,-22.47 -22.33,-22.33 c 1.4,-0.99 2.73,-2.11 3.98,-3.36 11.99,-11.99 11.99,-31.41 0.01,-43.39 -11.98,-11.98 -31.4,-11.97 -43.39,0.01 -1.25,1.25 -2.37,2.58 -3.36,3.98 l -22.33,-22.33 -18.03,18.03 c 0.11,0.11 0.22,0.22 0.34,0.33 14.19,14.19 14.18,37.2 -0.02,51.4 -14.2,14.2 -37.21,14.2 -51.4,0.02 -0.11,-0.11 -0.22,-0.22 -0.33,-0.34 z"
           style="fill:#369e3d;fill-rule:evenodd"
           id="path35" />
        <g
           clip-path="url(#clippath-1)"
           id="g36">
          <rect
             x="1166.13"
             y="631.46997"
             width="199.64999"
             height="164.62"
             transform="rotate(-45,1265.9756,713.77574)"
             style="fill:#369e3d;stroke-width:0px"
             id="rect35" />
        </g>
      </g>
      <g
         id="g39"
         transform="matrix(0.26458333,0,0,0.26458333,-235.80154,-96.194251)">
        <path
           d="m 1177.98,723.22 -17.37,-17.36 -22.46,22.46 c -1.12,-1.69 -2.42,-3.29 -3.91,-4.78 -11.99,-11.99 -31.41,-11.99 -43.39,-0.01 -11.98,11.98 -11.97,31.4 0.01,43.39 1.49,1.49 3.09,2.79 4.78,3.91 l -22.46,22.45 21.8,21.8 c -1.69,1.11 -3.28,2.42 -4.77,3.9 -11.98,11.98 -11.97,31.4 0.01,43.39 11.99,11.99 31.41,11.99 43.39,0.02 1.49,-1.49 2.79,-3.09 3.9,-4.77 l 22.47,22.47 22.33,-22.33 c 0.99,1.4 2.11,2.73 3.37,3.98 11.98,11.98 31.41,11.99 43.39,0.01 11.98,-11.98 11.97,-31.4 -0.01,-43.39 -1.25,-1.25 -2.59,-2.37 -3.98,-3.36 l 22.33,-22.33 -18.03,-18.03 c -0.11,0.11 -0.22,0.22 -0.33,0.34 -14.19,14.19 -37.2,14.18 -51.4,-0.02 -14.2,-14.2 -14.21,-37.21 -0.02,-51.4 0.11,-0.11 0.22,-0.22 0.34,-0.33 z"
           style="fill:#3d8ccc;fill-rule:evenodd"
           id="path37" />
        <g
           clip-path="url(#clippath-2)"
           id="g38">
          <rect
             x="1064.65"
             y="705.82001"
             width="164.62"
             height="199.64999"
             transform="rotate(-45,1146.9587,805.64414)"
             style="fill:#3d8ccc;stroke-width:0px"
             id="rect37" />
        </g>
      </g>
      <g
         id="g41"
         transform="matrix(0.26458333,0,0,0.26458333,-235.80154,-96.194251)">
        <path
           d="m 1135.23,717.16 17.36,-17.36 -22.45,-22.46 c 1.68,-1.12 3.29,-2.42 4.77,-3.91 11.99,-11.99 11.99,-31.41 0.01,-43.39 -11.98,-11.98 -31.4,-11.97 -43.39,0.01 -1.49,1.49 -2.79,3.09 -3.91,4.77 l -22.46,-22.46 -21.8,21.8 c -1.12,-1.68 -2.42,-3.28 -3.9,-4.77 -11.98,-11.98 -31.4,-11.97 -43.39,0.01 -11.99,11.99 -11.99,31.41 -0.01,43.39 1.49,1.49 3.09,2.79 4.77,3.91 l -22.47,22.47 22.33,22.33 c -1.4,0.99 -2.73,2.11 -3.98,3.36 -11.99,11.99 -11.99,31.41 -0.01,43.39 11.98,11.98 31.4,11.97 43.39,-0.01 1.25,-1.25 2.37,-2.58 3.36,-3.98 l 22.33,22.33 18.03,-18.03 c -0.11,-0.11 -0.22,-0.22 -0.33,-0.33 -14.19,-14.19 -14.18,-37.2 0.02,-51.4 14.2,-14.2 37.21,-14.2 51.4,-0.02 0.11,0.11 0.22,0.22 0.33,0.34 z"
           style="fill:#369e3d;fill-rule:evenodd"
           id="path39" />
        <g
           clip-path="url(#clippath-3)"
           id="g40">
          <rect
             x="952.97998"
             y="603.83002"
             width="199.64999"
             height="164.62"
             transform="rotate(-45,1052.8058,686.13355)"
             style="fill:#369e3d;stroke-width:0px"
             id="rect39" />
        </g>
      </g>
      <g
         id="g44"
         transform="matrix(0.26458333,0,0,0.26458333,-235.80154,-96.194251)">
        <path
           d="m 1403.44,854.97 c -10.89,0 -19.37,-3.67 -25.44,-11.01 -6.08,-7.34 -9.11,-18.65 -9.11,-33.92 0,-15.27 3.04,-26.69 9.11,-33.99 6.08,-7.3 14.56,-10.95 25.44,-10.95 6.08,0 11.52,1.18 16.33,3.54 4.81,2.36 8.61,6.03 11.39,11.01 2.79,4.98 4.18,11.39 4.18,19.24 h -16.58 c 0,-6.75 -1.41,-11.75 -4.24,-15 -2.83,-3.25 -6.52,-4.87 -11.08,-4.87 -5.99,0 -10.46,2.47 -13.42,7.4 -2.96,4.94 -4.43,11.75 -4.43,20.44 v 6.33 c 0,8.69 1.52,15.51 4.56,20.44 3.04,4.94 7.64,7.4 13.8,7.4 4.73,0 8.5,-1.62 11.33,-4.87 2.83,-3.25 4.24,-8.21 4.24,-14.87 h 15.82 c 0,7.59 -1.39,13.88 -4.18,18.86 -2.79,4.98 -6.56,8.69 -11.33,11.14 -4.77,2.45 -10.23,3.67 -16.39,3.67 z"
           style="fill:#3d8ccc;stroke-width:0px"
           id="path41" />
        <path
           d="m 1456.09,854.97 c -1.52,0 -3.25,-0.25 -5.19,-0.76 -1.94,-0.51 -3.78,-1.43 -5.51,-2.78 -1.73,-1.35 -3.16,-3.25 -4.3,-5.7 -1.14,-2.45 -1.71,-5.61 -1.71,-9.49 0,-5.99 1.41,-10.68 4.24,-14.05 2.83,-3.37 6.73,-5.76 11.71,-7.15 4.98,-1.39 10.67,-2.09 17.09,-2.09 v -6.96 c 0,-2.28 -0.42,-4.22 -1.27,-5.82 -0.84,-1.6 -2.74,-2.4 -5.7,-2.4 -3.12,0 -5.23,0.76 -6.33,2.28 -1.1,1.52 -1.64,3.08 -1.64,4.68 v 1.9 h -14.81 c -0.09,-0.42 -0.13,-0.84 -0.13,-1.27 v -1.52 c 0,-5.57 2.04,-10.04 6.14,-13.42 4.09,-3.37 9.56,-5.06 16.39,-5.06 7.76,0 13.48,1.71 17.15,5.13 3.67,3.42 5.51,8.25 5.51,14.49 v 32.78 c 0,1.6 0.38,2.74 1.14,3.42 0.76,0.68 1.56,1.01 2.41,1.01 h 3.04 v 10.76 c -0.84,0.42 -1.98,0.86 -3.42,1.33 -1.44,0.46 -3.29,0.7 -5.57,0.7 -3.04,0 -5.57,-0.8 -7.59,-2.41 -2.03,-1.6 -3.42,-3.71 -4.18,-6.33 h -0.63 c -1.86,2.62 -4.01,4.73 -6.46,6.33 -2.45,1.6 -5.91,2.41 -10.38,2.41 z m 6.33,-12.66 c 2.45,0 4.39,-0.68 5.82,-2.03 1.43,-1.35 2.49,-3.12 3.16,-5.32 0.67,-2.19 1.01,-4.6 1.01,-7.22 v -3.8 c -2.96,0 -5.76,0.31 -8.42,0.95 -2.66,0.63 -4.83,1.73 -6.52,3.29 -1.69,1.56 -2.53,3.78 -2.53,6.65 0,2.28 0.59,4.09 1.77,5.44 1.18,1.35 3.08,2.03 5.7,2.03 z"
           style="fill:#3d8ccc;stroke-width:0px"
           id="path42" />
        <path
           d="m 1500.4,853.45 v -66.58 h 12.66 l 1.52,8.23 h 0.76 c 1.6,-2.61 3.73,-4.89 6.39,-6.83 2.66,-1.94 5.8,-2.91 9.43,-2.91 3.29,0 6.16,0.76 8.61,2.28 2.45,1.52 4.35,4.01 5.7,7.47 1.69,-2.61 3.99,-4.89 6.9,-6.83 2.91,-1.94 6.35,-2.91 10.32,-2.91 3.21,0 6.03,0.68 8.48,2.03 2.45,1.35 4.39,3.57 5.82,6.65 1.43,3.08 2.15,7.32 2.15,12.72 v 46.71 h -15.19 v -42.53 c 0,-4.3 -0.61,-7.34 -1.84,-9.11 -1.22,-1.77 -3.1,-2.66 -5.63,-2.66 -2.53,0 -4.6,1.12 -6.46,3.35 -1.86,2.24 -2.78,5.21 -2.78,8.92 v 42.02 h -14.94 v -42.53 c 0,-4.3 -0.63,-7.34 -1.9,-9.11 -1.27,-1.77 -3.16,-2.66 -5.7,-2.66 -2.54,0 -4.79,1.22 -6.52,3.67 -1.73,2.45 -2.59,5.66 -2.59,9.62 v 41.01 h -15.19 z"
           style="fill:#3d8ccc;stroke-width:0px"
           id="path43" />
        <path
           d="m 1590.78,875.35 v -88.48 h 12.66 l 1.52,8.23 h 0.63 c 1.69,-3.21 3.84,-5.63 6.46,-7.28 2.61,-1.64 5.48,-2.47 8.61,-2.47 6.58,0 11.79,2.81 15.63,8.42 3.84,5.61 5.76,14.45 5.76,26.52 0,8.02 -0.91,14.6 -2.72,19.75 -1.82,5.15 -4.26,8.92 -7.34,11.33 -3.08,2.41 -6.6,3.61 -10.57,3.61 -3.38,0 -6.39,-0.74 -9.05,-2.22 -2.66,-1.47 -4.58,-3.52 -5.76,-6.14 h -0.63 v 28.73 h -15.19 z m 25.32,-34.18 c 3.71,0 6.33,-1.6 7.85,-4.81 1.52,-3.2 2.28,-7.8 2.28,-13.8 v -4.81 c 0,-5.99 -0.76,-10.59 -2.28,-13.8 -1.52,-3.2 -4.14,-4.81 -7.85,-4.81 -3.71,0 -6.22,1.6 -7.78,4.81 -1.56,3.21 -2.34,7.81 -2.34,13.8 v 4.56 c 0,5.99 0.78,10.63 2.34,13.92 1.56,3.29 4.15,4.94 7.78,4.94 z"
           style="fill:#3d8ccc;stroke-width:0px"
           id="path44" />
      </g>
      <g
         id="g49"
         transform="matrix(0.26458333,0,0,0.26458333,-235.80154,-96.194251)">
        <path
           d="m 1403.34,626.69 c -10.89,0 -19.37,-3.67 -25.44,-11.01 -6.08,-7.34 -9.11,-18.65 -9.11,-33.92 0,-15.27 3.04,-26.69 9.11,-33.99 6.08,-7.3 14.56,-10.95 25.44,-10.95 6.08,0 11.52,1.18 16.33,3.54 4.81,2.36 8.61,6.03 11.39,11.01 2.79,4.98 4.18,11.39 4.18,19.24 h -16.58 c 0,-6.75 -1.41,-11.75 -4.24,-15 -2.83,-3.25 -6.52,-4.87 -11.08,-4.87 -5.99,0 -10.46,2.47 -13.42,7.4 -2.96,4.94 -4.43,11.75 -4.43,20.44 v 6.33 c 0,8.69 1.52,15.51 4.56,20.44 3.04,4.93 7.64,7.4 13.8,7.4 4.73,0 8.5,-1.62 11.33,-4.87 2.83,-3.25 4.24,-8.21 4.24,-14.87 h 15.82 c 0,7.59 -1.39,13.88 -4.18,18.86 -2.79,4.98 -6.56,8.69 -11.33,11.14 -4.77,2.45 -10.23,3.67 -16.39,3.67 z"
           style="fill:#3d8ccc;stroke-width:0px"
           id="path45" />
        <path
           d="m 1469.29,626.69 c -8.86,0 -15.51,-2.81 -19.94,-8.42 -4.43,-5.61 -6.65,-14.41 -6.65,-26.39 0,-11.98 2.22,-20.78 6.65,-26.39 4.43,-5.61 11.08,-8.42 19.94,-8.42 8.86,0 15.51,2.81 19.94,8.42 4.43,5.61 6.65,14.41 6.65,26.39 0,11.98 -2.21,20.78 -6.65,26.39 -4.43,5.61 -11.08,8.42 -19.94,8.42 z m 0,-12.79 c 3.97,0 6.75,-1.66 8.35,-5 1.6,-3.33 2.4,-8.21 2.4,-14.62 v -4.81 c 0,-6.41 -0.8,-11.29 -2.4,-14.62 -1.6,-3.33 -4.39,-5 -8.35,-5 -3.96,0 -6.65,1.67 -8.29,5 -1.65,3.33 -2.47,8.21 -2.47,14.62 v 4.81 c 0,6.41 0.82,11.29 2.47,14.62 1.64,3.33 4.41,5 8.29,5 z"
           style="fill:#3d8ccc;stroke-width:0px"
           id="path46" />
        <path
           d="m 1506,625.17 v -66.58 h 12.66 l 1.52,8.23 h 0.76 c 1.69,-2.61 3.92,-4.89 6.71,-6.83 2.79,-1.94 6.16,-2.91 10.13,-2.91 5.15,0 9.39,1.6 12.72,4.81 3.33,3.21 5,8.73 5,16.58 v 46.71 h -15.19 v -42.53 c 0,-4.3 -0.78,-7.34 -2.34,-9.11 -1.56,-1.77 -3.69,-2.66 -6.39,-2.66 -2.96,0 -5.42,1.29 -7.41,3.86 -1.98,2.58 -2.97,5.72 -2.97,9.43 v 41.01 h -15.19 z"
           style="fill:#3d8ccc;stroke-width:0px"
           id="path47" />
        <path
           d="m 1568.4,625.17 v -53.8 h -6.71 v -12.78 h 6.71 v -8.1 c 0,-2.95 0.46,-5.8 1.39,-8.55 0.93,-2.74 2.53,-4.98 4.81,-6.71 2.28,-1.73 5.44,-2.59 9.49,-2.59 1.77,0 3.73,0.15 5.89,0.44 2.15,0.3 3.86,0.65 5.13,1.08 v 11.27 h -6.2 c -3.54,0 -5.32,1.82 -5.32,5.44 v 7.72 h 11.52 v 12.78 h -11.52 v 53.8 z m 33.42,-76.96 v -14.56 h 15.32 v 14.56 z m 0.13,76.96 v -66.58 h 15.19 v 66.58 z"
           style="fill:#3d8ccc;stroke-width:0px"
           id="path48" />
        <path
           d="m 1638.78,648.21 c -4.05,0 -7.51,-1.42 -10.38,-4.24 -2.87,-2.83 -4.3,-6.52 -4.3,-11.08 0,-3.29 0.82,-6.03 2.47,-8.23 1.64,-2.19 3.65,-3.97 6.01,-5.32 -1.6,-1.01 -2.89,-2.36 -3.86,-4.05 -0.97,-1.69 -1.46,-3.67 -1.46,-5.95 0,-2.95 0.97,-5.4 2.91,-7.34 1.94,-1.94 4.22,-3.37 6.83,-4.3 -2.62,-1.94 -4.62,-4.45 -6.01,-7.53 -1.39,-3.08 -2.09,-6.56 -2.09,-10.44 0,-6.83 2.11,-12.32 6.33,-16.46 4.22,-4.13 10.29,-6.2 18.23,-6.2 4.3,0 8.02,0.63 11.14,1.9 2.53,-1.86 4.24,-3.94 5.13,-6.27 0.89,-2.32 1.33,-4.07 1.33,-5.25 h 12.53 c 0,4.73 -0.95,8.48 -2.85,11.27 -1.9,2.78 -4.54,4.68 -7.91,5.7 1.69,1.86 2.99,4.1 3.92,6.71 0.93,2.62 1.39,5.49 1.39,8.61 0,6.83 -2.11,12.32 -6.33,16.46 -4.22,4.14 -10.34,6.2 -18.35,6.2 h -6.33 c -1.35,0 -2.45,0.38 -3.29,1.14 -0.84,0.76 -1.27,1.73 -1.27,2.91 0,1.1 0.38,2.03 1.14,2.78 0.76,0.76 1.69,1.14 2.79,1.14 h 23.04 c 4.22,0 7.8,1.56 10.76,4.68 2.95,3.12 4.43,7.34 4.43,12.66 0,4.13 -0.97,7.74 -2.91,10.82 -1.94,3.08 -4.54,5.46 -7.78,7.15 -3.25,1.69 -6.86,2.53 -10.82,2.53 h -24.43 z m 6.71,-11.52 h 17.09 c 1.94,0 3.56,-0.57 4.87,-1.71 1.31,-1.14 1.96,-2.64 1.96,-4.49 0,-1.85 -0.61,-3.44 -1.84,-4.49 -1.23,-1.05 -2.68,-1.58 -4.37,-1.58 h -17.72 c -1.69,0 -3.12,0.59 -4.3,1.77 -1.18,1.18 -1.77,2.62 -1.77,4.31 0,1.85 0.59,3.35 1.77,4.49 1.18,1.14 2.62,1.71 4.3,1.71 z m 7.98,-45.57 c 3.21,0 5.59,-1.01 7.15,-3.04 1.56,-2.03 2.34,-4.81 2.34,-8.35 0,-3.54 -0.78,-6.33 -2.34,-8.35 -1.56,-2.03 -3.95,-3.04 -7.15,-3.04 -3.2,0 -5.47,1.01 -7.03,3.04 -1.56,2.03 -2.34,4.81 -2.34,8.35 0,3.54 0.78,6.33 2.34,8.35 1.56,2.03 3.9,3.04 7.03,3.04 z"
           style="fill:#3d8ccc;stroke-width:0px"
           id="path49" />
      </g>
      <g
         id="g59"
         transform="matrix(0.26458333,0,0,0.26458333,-235.80154,-96.194251)">
        <path
           d="m 1371.28,736.3 v -86.83 h 22.78 l 10.76,47.85 c 0.34,1.43 0.7,3.25 1.08,5.44 0.38,2.2 0.76,4.37 1.14,6.52 0.38,2.15 0.78,4.71 1.2,7.66 h 0.51 c 0.42,-3.04 0.78,-5.67 1.08,-7.91 0.3,-2.24 0.61,-4.43 0.95,-6.58 0.34,-2.15 0.63,-3.86 0.89,-5.13 l 10.63,-47.85 h 22.02 v 86.83 h -14.94 v -55.32 c 0,-1.01 0.04,-2.28 0.13,-3.8 0.08,-1.52 0.15,-3.06 0.19,-4.62 0.04,-1.56 0.15,-3.4 0.32,-5.51 h -0.51 c -0.25,1.1 -0.51,2.21 -0.76,3.35 -0.25,1.14 -0.51,2.28 -0.76,3.42 -0.25,1.14 -0.51,2.28 -0.76,3.42 -0.25,1.14 -0.51,2.3 -0.76,3.48 l -12.15,55.57 h -14.05 l -12.28,-55.82 c -0.25,-1.09 -0.51,-2.21 -0.76,-3.35 -0.25,-1.14 -0.51,-2.26 -0.76,-3.36 -0.25,-1.09 -0.51,-2.21 -0.76,-3.35 -0.25,-1.14 -0.51,-2.26 -0.76,-3.35 h -0.51 c 0.17,2.2 0.27,4.09 0.32,5.7 0.04,1.6 0.1,3.16 0.19,4.68 0.08,1.52 0.13,2.7 0.13,3.54 v 55.32 z"
           style="fill:#369e3d;stroke-width:0px"
           id="path50" />
        <path
           d="m 1467.61,737.82 c -1.52,0 -3.25,-0.25 -5.19,-0.76 -1.94,-0.51 -3.78,-1.43 -5.51,-2.78 -1.73,-1.35 -3.16,-3.25 -4.3,-5.7 -1.14,-2.45 -1.71,-5.61 -1.71,-9.49 0,-5.99 1.41,-10.68 4.24,-14.05 2.83,-3.37 6.73,-5.76 11.71,-7.15 4.98,-1.39 10.67,-2.09 17.09,-2.09 v -6.96 c 0,-2.28 -0.42,-4.22 -1.27,-5.82 -0.84,-1.6 -2.74,-2.4 -5.7,-2.4 -3.12,0 -5.23,0.76 -6.33,2.28 -1.1,1.52 -1.64,3.08 -1.64,4.68 v 1.9 h -14.81 c -0.09,-0.42 -0.13,-0.84 -0.13,-1.27 v -1.52 c 0,-5.57 2.04,-10.04 6.14,-13.42 4.09,-3.37 9.56,-5.06 16.39,-5.06 7.76,0 13.48,1.71 17.15,5.13 3.67,3.42 5.51,8.25 5.51,14.49 v 32.78 c 0,1.6 0.38,2.74 1.14,3.42 0.76,0.68 1.56,1.01 2.41,1.01 h 3.04 v 10.76 c -0.84,0.42 -1.98,0.86 -3.42,1.33 -1.44,0.46 -3.29,0.7 -5.57,0.7 -3.04,0 -5.57,-0.8 -7.59,-2.41 -2.03,-1.6 -3.42,-3.71 -4.18,-6.33 h -0.63 c -1.86,2.62 -4.01,4.73 -6.46,6.33 -2.45,1.6 -5.91,2.41 -10.38,2.41 z m 6.33,-12.66 c 2.45,0 4.39,-0.68 5.82,-2.03 1.43,-1.35 2.49,-3.12 3.16,-5.32 0.67,-2.19 1.01,-4.6 1.01,-7.22 v -3.8 c -2.96,0 -5.76,0.31 -8.42,0.95 -2.66,0.63 -4.83,1.73 -6.52,3.29 -1.69,1.56 -2.53,3.78 -2.53,6.65 0,2.28 0.59,4.09 1.77,5.44 1.18,1.35 3.08,2.03 5.7,2.03 z"
           style="fill:#369e3d;stroke-width:0px"
           id="path51" />
        <path
           d="m 1511.92,736.3 v -66.58 h 12.66 l 1.52,8.23 h 0.76 c 1.69,-2.61 3.92,-4.89 6.71,-6.83 2.79,-1.94 6.16,-2.91 10.13,-2.91 5.15,0 9.39,1.6 12.72,4.81 3.33,3.21 5,8.73 5,16.58 v 46.71 h -15.19 v -42.53 c 0,-4.3 -0.78,-7.34 -2.34,-9.11 -1.56,-1.77 -3.69,-2.66 -6.39,-2.66 -2.96,0 -5.42,1.29 -7.41,3.86 -1.98,2.58 -2.97,5.72 -2.97,9.43 v 41.01 h -15.19 z"
           style="fill:#369e3d;stroke-width:0px"
           id="path52" />
        <path
           d="m 1584.95,737.82 c -1.52,0 -3.25,-0.25 -5.19,-0.76 -1.94,-0.51 -3.78,-1.43 -5.51,-2.78 -1.73,-1.35 -3.16,-3.25 -4.3,-5.7 -1.14,-2.45 -1.71,-5.61 -1.71,-9.49 0,-5.99 1.41,-10.68 4.24,-14.05 2.83,-3.37 6.73,-5.76 11.71,-7.15 4.98,-1.39 10.67,-2.09 17.09,-2.09 v -6.96 c 0,-2.28 -0.42,-4.22 -1.27,-5.82 -0.84,-1.6 -2.74,-2.4 -5.7,-2.4 -3.12,0 -5.23,0.76 -6.33,2.28 -1.1,1.52 -1.64,3.08 -1.64,4.68 v 1.9 h -14.81 c -0.09,-0.42 -0.13,-0.84 -0.13,-1.27 v -1.52 c 0,-5.57 2.04,-10.04 6.14,-13.42 4.09,-3.37 9.56,-5.06 16.39,-5.06 7.76,0 13.48,1.71 17.15,5.13 3.67,3.42 5.51,8.25 5.51,14.49 v 32.78 c 0,1.6 0.38,2.74 1.14,3.42 0.76,0.68 1.56,1.01 2.41,1.01 h 3.04 v 10.76 c -0.84,0.42 -1.98,0.86 -3.42,1.33 -1.44,0.46 -3.29,0.7 -5.57,0.7 -3.04,0 -5.57,-0.8 -7.59,-2.41 -2.03,-1.6 -3.42,-3.71 -4.18,-6.33 h -0.63 c -1.86,2.62 -4.01,4.73 -6.46,6.33 -2.45,1.6 -5.91,2.41 -10.38,2.41 z m 6.33,-12.66 c 2.45,0 4.39,-0.68 5.82,-2.03 1.43,-1.35 2.49,-3.12 3.16,-5.32 0.67,-2.19 1.01,-4.6 1.01,-7.22 v -3.8 c -2.96,0 -5.76,0.31 -8.42,0.95 -2.66,0.63 -4.83,1.73 -6.52,3.29 -1.69,1.56 -2.53,3.78 -2.53,6.65 0,2.28 0.59,4.09 1.77,5.44 1.18,1.35 3.08,2.03 5.7,2.03 z"
           style="fill:#369e3d;stroke-width:0px"
           id="path53" />
        <path
           d="m 1639,759.33 c -4.05,0 -7.51,-1.42 -10.38,-4.24 -2.87,-2.83 -4.3,-6.52 -4.3,-11.08 0,-3.29 0.82,-6.03 2.47,-8.23 1.64,-2.19 3.65,-3.97 6.01,-5.32 -1.6,-1.01 -2.89,-2.36 -3.86,-4.05 -0.97,-1.69 -1.46,-3.67 -1.46,-5.95 0,-2.95 0.97,-5.4 2.91,-7.34 1.94,-1.94 4.22,-3.37 6.83,-4.3 -2.62,-1.94 -4.62,-4.45 -6.01,-7.53 -1.39,-3.08 -2.09,-6.56 -2.09,-10.44 0,-6.83 2.11,-12.32 6.33,-16.46 4.22,-4.13 10.29,-6.2 18.23,-6.2 4.3,0 8.02,0.63 11.14,1.9 2.53,-1.86 4.24,-3.94 5.13,-6.27 0.89,-2.32 1.33,-4.07 1.33,-5.25 h 12.53 c 0,4.73 -0.95,8.48 -2.85,11.27 -1.9,2.78 -4.54,4.68 -7.91,5.7 1.69,1.86 2.99,4.1 3.92,6.71 0.93,2.62 1.39,5.49 1.39,8.61 0,6.83 -2.11,12.32 -6.33,16.46 -4.22,4.14 -10.34,6.2 -18.35,6.2 h -6.33 c -1.35,0 -2.45,0.38 -3.29,1.14 -0.84,0.76 -1.27,1.73 -1.27,2.91 0,1.1 0.38,2.03 1.14,2.78 0.76,0.76 1.69,1.14 2.79,1.14 h 23.04 c 4.22,0 7.8,1.56 10.76,4.68 2.95,3.12 4.43,7.34 4.43,12.66 0,4.13 -0.97,7.74 -2.91,10.82 -1.94,3.08 -4.54,5.46 -7.78,7.15 -3.25,1.69 -6.86,2.53 -10.82,2.53 h -24.43 z m 6.71,-11.52 h 17.09 c 1.94,0 3.56,-0.57 4.87,-1.71 1.31,-1.14 1.96,-2.64 1.96,-4.49 0,-1.85 -0.61,-3.44 -1.84,-4.49 -1.23,-1.05 -2.68,-1.58 -4.37,-1.58 h -17.72 c -1.69,0 -3.12,0.59 -4.3,1.77 -1.18,1.18 -1.77,2.62 -1.77,4.31 0,1.85 0.59,3.35 1.77,4.49 1.18,1.14 2.62,1.71 4.3,1.71 z m 7.98,-45.57 c 3.21,0 5.59,-1.01 7.15,-3.04 1.56,-2.03 2.34,-4.81 2.34,-8.35 0,-3.54 -0.78,-6.33 -2.34,-8.35 -1.56,-2.03 -3.95,-3.04 -7.15,-3.04 -3.2,0 -5.47,1.01 -7.03,3.04 -1.56,2.03 -2.34,4.81 -2.34,8.35 0,3.54 0.78,6.33 2.34,8.35 1.56,2.03 3.9,3.04 7.03,3.04 z"
           style="fill:#369e3d;stroke-width:0px"
           id="path54" />
        <path
           d="m 1713.81,737.82 c -8.52,0 -15,-2.81 -19.43,-8.42 -4.43,-5.61 -6.64,-14.41 -6.64,-26.39 0,-11.98 2.21,-20.78 6.64,-26.39 4.43,-5.61 10.74,-8.42 18.92,-8.42 8.18,0 14.03,2.81 18.04,8.42 4.01,5.61 6.01,14.41 6.01,26.39 v 3.8 h -33.8 c 0.08,5.91 0.89,10.49 2.4,13.73 1.52,3.25 4.13,4.87 7.85,4.87 2.62,0 4.68,-1.12 6.2,-3.35 1.52,-2.24 2.28,-5.34 2.28,-9.3 h 15.06 c 0,8.52 -2.24,14.83 -6.71,18.92 -4.47,4.09 -10.08,6.14 -16.84,6.14 z m -10.13,-42.02 h 17.72 c 0,-4.81 -0.66,-8.54 -1.96,-11.2 -1.31,-2.66 -3.35,-3.99 -6.14,-3.99 -3.21,0 -5.55,1.33 -7.03,3.99 -1.48,2.66 -2.34,6.39 -2.59,11.2 z"
           style="fill:#369e3d;stroke-width:0px"
           id="path55" />
        <path
           d="m 1746.59,736.3 v -66.58 h 12.66 l 1.52,8.23 h 0.76 c 1.6,-2.61 3.73,-4.89 6.39,-6.83 2.66,-1.94 5.8,-2.91 9.43,-2.91 3.29,0 6.16,0.76 8.61,2.28 2.45,1.52 4.35,4.01 5.7,7.47 1.69,-2.61 3.99,-4.89 6.9,-6.83 2.91,-1.94 6.35,-2.91 10.32,-2.91 3.21,0 6.03,0.68 8.48,2.03 2.45,1.35 4.39,3.57 5.82,6.65 1.43,3.08 2.15,7.32 2.15,12.72 v 46.71 h -15.19 V 693.8 c 0,-4.3 -0.61,-7.34 -1.84,-9.11 -1.22,-1.77 -3.1,-2.66 -5.63,-2.66 -2.53,0 -4.6,1.12 -6.46,3.35 -1.86,2.24 -2.78,5.21 -2.78,8.92 v 42.02 h -14.94 v -42.53 c 0,-4.3 -0.63,-7.34 -1.9,-9.11 -1.27,-1.77 -3.16,-2.66 -5.7,-2.66 -2.54,0 -4.79,1.22 -6.52,3.67 -1.73,2.45 -2.59,5.66 -2.59,9.62 v 41.01 h -15.19 z"
           style="fill:#369e3d;stroke-width:0px"
           id="path56" />
        <path
           d="m 1860,737.82 c -8.52,0 -15,-2.81 -19.43,-8.42 -4.43,-5.61 -6.64,-14.41 -6.64,-26.39 0,-11.98 2.21,-20.78 6.64,-26.39 4.43,-5.61 10.74,-8.42 18.92,-8.42 8.18,0 14.03,2.81 18.04,8.42 4.01,5.61 6.01,14.41 6.01,26.39 v 3.8 h -33.8 c 0.08,5.91 0.89,10.49 2.4,13.73 1.52,3.25 4.13,4.87 7.85,4.87 2.62,0 4.68,-1.12 6.2,-3.35 1.52,-2.24 2.28,-5.34 2.28,-9.3 h 15.06 c 0,8.52 -2.24,14.83 -6.71,18.92 -4.47,4.09 -10.08,6.14 -16.84,6.14 z m -10.13,-42.02 h 17.72 c 0,-4.81 -0.66,-8.54 -1.96,-11.2 -1.31,-2.66 -3.35,-3.99 -6.14,-3.99 -3.21,0 -5.55,1.33 -7.03,3.99 -1.48,2.66 -2.34,6.39 -2.59,11.2 z"
           style="fill:#369e3d;stroke-width:0px"
           id="path57" />
        <path
           d="m 1892.79,736.3 v -66.58 h 12.66 l 1.52,8.23 h 0.76 c 1.69,-2.61 3.92,-4.89 6.71,-6.83 2.79,-1.94 6.16,-2.91 10.13,-2.91 5.15,0 9.39,1.6 12.72,4.81 3.33,3.21 5,8.73 5,16.58 v 46.71 h -15.19 v -42.53 c 0,-4.3 -0.78,-7.34 -2.34,-9.11 -1.56,-1.77 -3.69,-2.66 -6.39,-2.66 -2.96,0 -5.42,1.29 -7.41,3.86 -1.98,2.58 -2.97,5.72 -2.97,9.43 v 41.01 h -15.19 z"
           style="fill:#369e3d;stroke-width:0px"
           id="path58" />
        <path
           d="m 1970.89,737.82 c -4.05,0 -7.22,-0.87 -9.49,-2.59 -2.28,-1.73 -3.88,-3.97 -4.81,-6.71 -0.93,-2.74 -1.39,-5.59 -1.39,-8.54 v -37.47 h -6.71 v -12.78 h 6.71 l 2.28,-18.73 h 12.91 v 18.73 h 9.62 v 12.78 h -9.62 v 37.09 c 0,3.63 1.77,5.44 5.32,5.44 h 4.3 v 11.27 c -1.1,0.34 -2.53,0.67 -4.3,1.01 -1.77,0.34 -3.38,0.51 -4.81,0.51 z"
           style="fill:#369e3d;stroke-width:0px"
           id="path59" />
      </g>
    </g>
  </g>
</svg>
